<svg xmlns="http://www.w3.org/2000/svg" viewBox="0 0 263.92 383.12"><defs><style>.cls-1{fill:#662d91;}.cls-1,.cls-2,.cls-3,.cls-9{stroke:#000;}.cls-1,.cls-2,.cls-3,.cls-8,.cls-9{stroke-miterlimit:10;}.cls-2,.cls-6{fill:#fbb03b;}.cls-3,.cls-4{fill:#fff;}.cls-5{fill:#8c6239;}.cls-7{fill:#f7931e;}.cls-8{fill:#603813;stroke:#a67c52;}</style></defs><g id="Layer_2" data-name="Layer 2"><g id="Layer_9" data-name="Layer 9"><path class="cls-1" d="M17.3,355.57s.79,16.34,1.4,17.67"/></g><g id="Layer_10" data-name="Layer 10"><path class="cls-2" d="M3.3,325.57s-13-98,17-158l75,61,147-52s32,135,16,181c0,0-40,55-59,2,0,0-25.61-115.81-31.3-119.9s-81.86-1.91-81.86-1.91S52.3,351.57,51.3,362.57c1,1-28,36-44-7C7.3,355.57,4.3,330.57,3.3,325.57Z"/><path class="cls-3" d="M5.54,341.36S12.77,309.4,60,328c.26-.42-8.74,34.58-8.74,34.58s-25,36-44-7Z"/><path class="cls-3" d="M192.28,328.65s12.89-39.48,70.46-12.28c-.44.2-1,33.65-3.71,38.92.27.28-38.76,53.91-58.25,8.09C200.3,363.57,192.28,328.65,192.28,328.65Z"/><path d="M18.3,347.57c0,2.16-.1,4.31-.16,6.46L18,360.47q-.09,3.22,0,6.43c0,1.06.06,2.13.19,3.19a14.23,14.23,0,0,0,.59,3.15,17.12,17.12,0,0,1-1.55-6.3,58.62,58.62,0,0,1-.19-6.49c.07-2.16.19-4.32.42-6.47S17.88,349.69,18.3,347.57Z"/><line class="cls-4" x1="29.3" y1="347.57" x2="28.52" y2="376.65"/><path d="M29.3,347.57c.14,2.43.18,4.85.19,7.28s0,4.85-.08,7.27-.15,4.85-.31,7.27L28.86,373c-.11,1.21-.19,2.42-.34,3.63-.08-1.22-.09-2.43-.15-3.64l0-3.64c0-2.43,0-4.85.08-7.27s.16-4.85.31-7.27S29,350,29.3,347.57Z"/><path class="cls-4" d="M41.3,349.57s1,19,0,22"/><path d="M41.3,349.57a82.82,82.82,0,0,1,.9,11c0,1.84,0,3.68-.08,5.53a20.7,20.7,0,0,1-.82,5.47,16.7,16.7,0,0,0,.1-2.74c0-.92,0-1.83-.06-2.75l-.14-5.49C41.14,356.93,41.09,353.26,41.3,349.57Z"/><path class="cls-4" d="M227.3,355.57s1.42,21.09.21,25.55"/><path d="M227.3,355.57c.35,2.12.56,4.24.74,6.37s.3,4.26.37,6.4.08,4.27,0,6.41a26.35,26.35,0,0,1-.86,6.37,24.33,24.33,0,0,0,.14-3.19c0-1.06,0-2.12-.05-3.19l-.19-6.37c0-2.13-.12-4.26-.13-6.39S227.23,357.71,227.3,355.57Z"/><path class="cls-4" d="M243.3,353.57s1.63,16,.82,18"/><path d="M243.3,353.57a59.11,59.11,0,0,1,1.27,9c.09,1.51.16,3,.13,4.53a14.34,14.34,0,0,1-.58,4.51,11.17,11.17,0,0,0,0-2.24l-.18-2.24-.35-4.49C243.38,359.6,243.21,356.6,243.3,353.57Z"/><path class="cls-4" d="M213.3,360.57s-1,18.07,0,19"/><path d="M213.3,360.57c.23,3.2.18,6.38.12,9.55l-.17,4.76-.08,2.38a7.1,7.1,0,0,0,.13,2.35,2.72,2.72,0,0,1-.42-1.13c-.08-.4-.15-.8-.2-1.2-.1-.79-.17-1.59-.21-2.39-.09-1.6-.08-3.2-.05-4.79A66.34,66.34,0,0,1,213.3,360.57Z"/><path class="cls-5" d="M191.09,227.62s22.21-6.05,32.21-11.05,25.5-9.49,25.5-9.49l-4.69-22.51-44.81,35-6,4"/><path class="cls-5" d="M19.8,171.07A179.08,179.08,0,0,0,5.42,215.12c.38-.05,70.06,24.32,80.72,22.64"/><path class="cls-5" d="M83.8,213.07l-65.18-42s-2.86,9.06-3.84,11.53"/></g><g id="Layer_3" data-name="Layer 3"><path class="cls-2" d="M244.39,116.09c12.08-18.49,7.91-90.52,7.91-90.52-36-1-81,32-81,32s-3,1-3,4"/><path class="cls-2" d="M51.77,83.21S66.3,8.57,96.3.57c0,0,34,45.47,35.5,52.73"/><path class="cls-6" d="M234.3,37.57s-37,4-43,33"/><path d="M234.3,37.57a67.49,67.49,0,0,0-7,1.61,70.72,70.72,0,0,0-6.83,2.23,60.7,60.7,0,0,0-12.75,6.48,40.86,40.86,0,0,0-10.34,9.76,36.93,36.93,0,0,0-6,12.92c.27-1.17.42-2.38.8-3.53l.52-1.74.64-1.7a34.11,34.11,0,0,1,3.46-6.4,40,40,0,0,1,10.41-10.13,57.2,57.2,0,0,1,13.05-6.38A60.78,60.78,0,0,1,234.3,37.57Z"/><path class="cls-6" d="M237.3,108.57s6-4,5-20"/><path d="M237.3,108.57a8.83,8.83,0,0,0,1.55-2.11,17.42,17.42,0,0,0,1.1-2.36,26.52,26.52,0,0,0,1.36-5c.34-1.71.51-3.45.68-5.2l.17-2.64c.05-.88.06-1.77.14-2.66.15.88.23,1.76.35,2.65s.09,1.78.12,2.68-.06,1.79-.11,2.68-.18,1.79-.36,2.67a20.39,20.39,0,0,1-1.63,5.16A10,10,0,0,1,237.3,108.57Z"/><path class="cls-6" d="M115.3,53.57s-16-33-20-38"/><path d="M115.3,53.57c-1.75-3.13-3.42-6.3-5.08-9.47s-3.3-6.36-4.94-9.54L100.42,25c-.8-1.6-1.63-3.19-2.47-4.76a52.39,52.39,0,0,0-2.65-4.67,70.35,70.35,0,0,1,5.8,9.06c1.78,3.12,3.43,6.3,5.07,9.48s3.22,6.4,4.73,9.65S113.92,50.26,115.3,53.57Z"/><path class="cls-7" d="M116.3,54.57l-22-40s-33,38-22,60c-1-4,46-16,46-16"/><path class="cls-7" d="M191.86,68.25S202.8,37.07,238.8,38.07c0,0,12,46-2,73"/></g><g id="Layer_1-2" data-name="Layer 1"><path class="cls-2" d="M19.3,198.57A128.33,128.33,0,0,1,18,183.07c-1-32.19,6.06-105.13,86.28-127.5,0,0,43-10,92,12,4,0,44,27,49,52v63s2,2,9-3l-9,13h13l-45,19s-42,38-95,40c0,0-90-38-91-42,0,0-12,0-15-3l7-1-10-10Z"/></g><g id="Layer_7" data-name="Layer 7"><polyline class="cls-5" points="82.3 198.57 53.3 205.57 78.7 195.93 47.3 196.57 66.94 192.34 80.3 192.57 84.3 196.57"/><polyline class="cls-5" points="163.63 205.57 191.3 213.57 175.3 202.57 197.3 207.57 186.3 198.57 215.3 202.57 177.3 194.57"/><path class="cls-5" d="M136.38,53.41s-9.58,5.66-11.08,13.16c.5-.5,12.5-12.5,15.5-12.5"/><path class="cls-5" d="M145.26,53.73s-8.46,12.34-8.46,14.34,11.6-13.29,15.8-13.65"/><path class="cls-5" d="M159.17,56.35S149.58,62,148.08,69.51c.5-.5,12.5-12.5,15.5-12.5"/></g><g id="Layer_8" data-name="Layer 8"><path class="cls-5" d="M238.8,200.07l10-7h7l-17,7h0"/><path class="cls-5" d="M247.8,183.07s1,4,0,5l5-7S248.8,183.07,247.8,183.07Z"/><path class="cls-8" d="M153.33,87.19s30-4,44,21C197.33,108.19,156.33,92.19,153.33,87.19Z"/><path class="cls-8" d="M41.73,105.93s21-21.77,47.53-10.87C89.26,95.06,47.19,108,41.73,105.93Z"/></g><g id="Layer_5" data-name="Layer 5"><path class="cls-3" d="M39.3,107.57a39.37,39.37,0,0,0-6,8,51.4,51.4,0,0,0-4.45,9.68c-2.56,7.44-2.83,12.35-4,20-2.89,18.81-5.15,17.79-4,23,2.18,9.9,11.57,17.28,19.45,20.32,7.42,2.86,8.46,0,23,3,10.1,2.12,15.14,3.18,19,7,4.64,4.59,4.61,9.23,11,13,2,1.16,5,3,8,2,4.72-1.49,5.82-8.65,7.55-8.32,1.29.26.26,4.19,2.45,7.32,3.63,5.2,14.61,6,18.55,1.68,2.19-2.4,1.75-5.9,3-6,1.51-.11,1.63,5,5.45,7.32s8.65.16,9,0a13.09,13.09,0,0,0,5.55-5.32c6-8.89,26.53-1.38,42.45-7.68,12.78-5,18.9-17.56,24-28,3.81-7.78,10.53-21.53,7-39-.49-2.42-4.25-19.73-19.45-31.32-8.94-6.81-11.6-3.94-32.55-12.68-19.41-8.1-19.88-12-33-15a81.82,81.82,0,0,0-30-1c-12.21,1.61-20.58,5.21-34,11-15.7,6.77-14.06,8.5-27,14A32.8,32.8,0,0,0,39.3,107.57Z"/></g><g id="Layer_6" data-name="Layer 6"><path class="cls-9" d="M164.3,116.57c8,1.77,11.41,13.85,12,16,.41,1.48,4.26,16-3,22-8.31,6.85-28.78.54-32-12C138,129.7,153.91,114.29,164.3,116.57Z"/><path class="cls-9" d="M77.06,113.55c-8,1.77-11.4,13.85-12,16-.41,1.48-4.26,16,3,22,8.31,6.85,28.79.54,32-12C103.36,126.68,87.45,111.27,77.06,113.55Z"/><path class="cls-9" d="M118.3,158.57s-5,4-5,10l5,8S113.3,165.57,118.3,158.57Z"/><path class="cls-9" d="M227.3,145.84s16-.74,18-4"/><path class="cls-9" d="M26.33,135.15s-1.79,1-2.41-1.31"/></g></g></svg>
